<?xml version="1.0" standalone="no"?>
<!DOCTYPE svg PUBLIC "-//W3C//DTD SVG 20010904//EN"
 "http://www.w3.org/TR/2001/REC-SVG-20010904/DTD/svg10.dtd">
<svg version="1.0" xmlns="http://www.w3.org/2000/svg"
 width="512.000000pt" height="512.000000pt" viewBox="0 0 512.000000 512.000000"
 preserveAspectRatio="xMidYMid meet">

<g transform="translate(0.000000,512.000000) scale(0.100000,-0.100000)"
fill="#000000" stroke="none">
<path d="M2180 4930 c-476 -45 -710 -149 -807 -357 -41 -89 -53 -172 -53 -380
0 -189 0 -192 24 -220 l24 -28 501 -3 501 -3 0 -59 0 -59 -737 -3 c-830 -5
-787 -1 -958 -83 -205 -99 -339 -273 -405 -527 -36 -139 -67 -329 -76 -468
-12 -202 38 -551 110 -763 86 -252 254 -421 467 -472 48 -11 126 -15 307 -15
l244 0 29 29 29 29 0 284 c0 320 7 365 68 482 66 127 204 241 347 287 30 10
198 14 680 19 707 7 667 3 804 75 159 84 275 233 316 410 22 91 22 1205 0
1290 -27 107 -82 203 -165 285 -190 189 -400 247 -915 255 -132 2 -283 0 -335
-5z m-224 -339 c81 -37 129 -140 105 -223 -53 -179 -285 -200 -362 -33 -75
163 93 330 257 256z"/>
</g>
</svg>
