<?xml version="1.0" encoding="utf-8"?>
<svg version="1.1" xmlns="http://www.w3.org/2000/svg" xmlns:xlink="http://www.w3.org/1999/xlink" x="0px" y="0px" viewBox="0 0 230 55" xml:space="preserve">
    <path d="M101.58,26.25a16.94,16.94,0,0,1-2.33-.74,2.42,2.42,0,0,1-1.72-2.3c0-2,1.9-2.85,3.79-2.85a5.49,5.49,0,0,1,4.43,2.09l.07.09,1.52-1.19-.07-.09a7.28,7.28,0,0,0-5.86-2.76,6.9,6.9,0,0,0-4.07,1.2,4.31,4.31,0,0,0-1.8,3.61c0,3.47,3.27,4.32,5.89,5s4.29,1.23,4.29,3.26-1.61,3.28-4.11,3.28a5.77,5.77,0,0,1-5-2.52l-.07-.1L95,33.38l.07.1a7.51,7.51,0,0,0,6.44,3.24c3.72,0,6.21-2.1,6.21-5.23C107.7,27.92,104.31,27,101.58,26.25ZM76.31,23.66H70.37a.86.86,0,0,0-.61.25.89.89,0,0,0-.24.6v5.94a.85.85,0,0,0,.84.85h6a.86.86,0,0,0,.6-.25.81.81,0,0,0,.24-.6V24.51a.81.81,0,0,0-.24-.6A.86.86,0,0,0,76.31,23.66ZM82.65,13.5H64a4.67,4.67,0,0,0-4.68,4.68V36.82A4.68,4.68,0,0,0,64,41.5H82.65a4.69,4.69,0,0,0,4.68-4.68V18.18a4.68,4.68,0,0,0-4.68-4.68ZM80.77,36.41H65.9a1.48,1.48,0,0,1-1.48-1.48V20.07a1.47,1.47,0,0,1,1.48-1.48H80.76a1.48,1.48,0,0,1,1.48,1.48V34.93A1.47,1.47,0,0,1,80.77,36.41Zm62.75-13A8.11,8.11,0,0,0,138.61,25l-.08.07.93,1.42.1-.09a6.24,6.24,0,0,1,3.91-1.31c.66,0,2.8.13,2.8,1.78,0,1.46-1.77,1.73-3.49,2h0l-.63.09c-1.26.21-4.21.71-4.21,3.84,0,2.41,1.7,3.91,4.44,3.91A4.71,4.71,0,0,0,146.26,35v1.42h1.79V27.15C148.06,24.78,146.36,23.36,143.52,23.36Zm2.75,7.94A3.43,3.43,0,0,1,142.55,35h0c-.83,0-2.75-.22-2.75-2.26,0-1.42.9-1.85,2.67-2.17l.56-.1h0a9,9,0,0,0,3.22-1Zm-26.44-5.77a5.25,5.25,0,0,0-4.35-2.17c-3.4,0-5.78,2.74-5.78,6.68s2.38,6.65,5.78,6.65a5.21,5.21,0,0,0,4.35-2.16v7h1.79V23.65h-1.79ZM115.63,35h0c-2,0-4-1.3-4-4.94,0-2.37,1.07-4.91,4-4.91,2.56,0,4.21,1.93,4.21,4.91S118.18,35,115.63,35Zm41-11.54A4.57,4.57,0,0,0,153,25.28V23.65h-1.79V36.4H153V29.58c0-3,1.7-4.38,3.38-4.38a3.34,3.34,0,0,1,1.43.3l.12.07.57-1.63-.08-.05A3.21,3.21,0,0,0,156.63,23.41Zm8.29-.05c-3.52,0-6,2.76-6,6.7s2.46,6.63,6.12,6.63a6.25,6.25,0,0,0,5-2.3l.08-.09-1.3-1.15-.08.1a4.46,4.46,0,0,1-3.62,1.7c-2.6,0-4.29-1.81-4.33-4.62h9.78v-.1c0-.3,0-.61,0-.91A5.6,5.6,0,0,0,164.92,23.36Zm-4,5.4a3.85,3.85,0,0,1,4-3.68,3.73,3.73,0,0,1,3.91,3.68ZM133.45,30.7a4,4,0,0,1-4,4.25c-1.94,0-2.88-1.14-2.88-3.5v-7.8h-1.78v8.16c0,3.06,1.66,4.88,4.44,4.88a5.15,5.15,0,0,0,4.23-2.07V36.4h1.79V23.65h-1.79Z" fill="#3e4348"/>
</svg>