<?xml version="1.0" encoding="utf-8"?>
<svg version="1.1" xmlns="http://www.w3.org/2000/svg" xmlns:xlink="http://www.w3.org/1999/xlink" x="0px" y="0px" viewBox="0 0 230 55" xml:space="preserve">
  <path d="M149.23,11.5H80.77A3.54,3.54,0,0,0,77.24,15V40a3.54,3.54,0,0,0,3.53,3.52h68.45A3.53,3.53,0,0,0,152.74,40h0V15A3.54,3.54,0,0,0,149.23,11.5Z" fill="#f18630"/>
  <path d="M145.76,25.27a5.9,5.9,0,0,0-4.25-1.5,12,12,0,0,0-6.57,1.79l1.65,2.53a8.1,8.1,0,0,1,4.17-.9c1.58.1,2.37.71,2.4,1.8v.44a7.72,7.72,0,0,0-3.29-.89q-3.15,0-4.57,1.65a5.56,5.56,0,0,0-1.41,3.73,4.36,4.36,0,0,0,1.5,3.51,6.76,6.76,0,0,0,4.48,1.28,6.28,6.28,0,0,0,3.29-1.2v1.2h4.17v-9A5.92,5.92,0,0,0,145.76,25.27Zm-2.6,9c-.41.78-1.35,1.17-2.85,1.18-1.8-.1-2.74-.74-2.84-1.93.1-1.19,1.05-1.88,2.84-2.09,1.5,0,2.44.38,2.85,1.15ZM93.43,25a5,5,0,0,0-3.29-1.2A7,7,0,0,0,84.69,26a7.82,7.82,0,0,0,0,10.47,7,7,0,0,0,5.45,2.24,5.75,5.75,0,0,0,3.29-1.2v1.2H97.6V16.31l-4.17,0Zm0,7.62c-.2,1.49-1.24,2.39-3.13,2.69-2.59-.1-3.94-1.53-4-4.33a4,4,0,0,1,4-3.72q2.84.44,3.13,2.94ZM127.22,25a4.92,4.92,0,0,0-3.28-1.2A7,7,0,0,0,118.49,26a7.82,7.82,0,0,0,0,10.47,7,7,0,0,0,5.45,2.24,5.72,5.72,0,0,0,3.28-1.2v1.2h4.18V16.31l-4.18,0Zm0,7.62c-.2,1.49-1.24,2.39-3.13,2.69-2.59-.1-3.94-1.53-4-4.33a4,4,0,0,1,4-3.72q2.84.44,3.13,2.94Zm-17.36.82a2.85,2.85,0,0,1-2.24,1.73,3.08,3.08,0,0,1-2.25-.87,3.34,3.34,0,0,1-.75-2.31V23.73h-4.17V33a5.91,5.91,0,0,0,1.49,4,5.47,5.47,0,0,0,4.33,1.72,5.21,5.21,0,0,0,3.59-1.35v1.36H114V23.74h-4.18Z" fill="#fff"/>
</svg>