<?xml version="1.0" encoding="utf-8"?>
<svg version="1.1" xmlns="http://www.w3.org/2000/svg" xmlns:xlink="http://www.w3.org/1999/xlink" x="0px" y="0px" viewBox="0 0 230 55" xml:space="preserve">
    <path d="M119.84,15c-1.29.65-1.85,1.85-1.85,5.12a5.28,5.28,0,0,1,1.68-1,7.36,7.36,0,0,0,1.68-.92c1.11-.84,1.29-1.85,1.29-3.62A6.31,6.31,0,0,0,119.84,15Z" fill="#fbbd71"/>
    <path d="M112,15.75a4.68,4.68,0,0,0-1.4,2.51l-3.62,13.85-3-11.33a9.61,9.61,0,0,0-1.68-3.72,4.89,4.89,0,0,0-3.44-1.4,5.09,5.09,0,0,0-3.44,1.4,9.61,9.61,0,0,0-1.68,3.72l-2.8,11.33L87.32,18.26a5.08,5.08,0,0,0-1.4-2.51,5.86,5.86,0,0,0-4.37-1.21l6.89,25.92a8.23,8.23,0,0,0,3.35-.37c1.49-.75,2.24-1.29,3.08-4.84.84-3.16,3.07-12.36,3.25-13,.08-.28.27-1.12.83-1.12s.76.76.84,1.12c.2.65,2.41,9.85,3.25,13,.93,3.53,1.57,4.09,3.08,4.84a8.23,8.23,0,0,0,3.35.37l6.84-25.92A6,6,0,0,0,112,15.75Z" fill="#000000"/>
    <path d="M121.22,19.92c-.65.36-1.21.56-1.85.92-1.12.56-1.4,1.12-1.4,2V40.37a6.2,6.2,0,0,0,2.88-.36c1.48-.75,1.76-1.49,1.76-4.65V18.71A5.12,5.12,0,0,1,121.22,19.92Z" fill="#000000"/>
    <path d="M148.45,14.63s-3.62-.65-5.49,1a15.7,15.7,0,0,0-2.41,3l-3.16,4.64c-.19.28-.36.48-.64.48a.85.85,0,0,1-.65-.48l-3.16-4.64a26.94,26.94,0,0,0-2.41-3c-1.85-1.68-5.49-1-5.49-1l8.46,12.9-8.65,12.91s3.81.47,5.68-1.21a15,15,0,0,0,2.32-2.79L136,31.79c.2-.28.37-.47.65-.47a.82.82,0,0,1,.64.47l3.17,4.65a19.6,19.6,0,0,0,2.32,2.79c1.85,1.68,5.57,1.21,5.57,1.21l-8.65-12.89Z" fill="#000000"/>
</svg>