<?xml version="1.0" encoding="utf-8"?>
<svg version="1.1" xmlns="http://www.w3.org/2000/svg" xmlns:xlink="http://www.w3.org/1999/xlink" x="0px" y="0px" viewBox="0 0 230 55" xml:space="preserve">
    <path d="M100.16,19.59a7.9,7.9,0,1,0,7.92,7.9A7.78,7.78,0,0,0,100.16,19.59Zm0,12.68a4.56,4.56,0,0,1-4.45-4.78,4.46,4.46,0,1,1,8.9,0A4.57,4.57,0,0,1,100.16,32.27Z" fill="#ea4335"/>
    <path d="M117.25,19.59a7.9,7.9,0,1,0,7.92,7.9A7.78,7.78,0,0,0,117.25,19.59Zm0,12.68a4.56,4.56,0,0,1-4.45-4.78,4.46,4.46,0,1,1,8.9,0A4.57,4.57,0,0,1,117.25,32.27Z" fill="#fbbc05"/>
    <path d="M138.26,20.07v1.29h-.13A5.44,5.44,0,0,0,134,19.59a7.9,7.9,0,0,0,0,15.79,5.35,5.35,0,0,0,4.15-1.8h.13v1.14c0,3-1.62,4.63-4.22,4.63a4.38,4.38,0,0,1-4-2.8l-3,1.25a7.53,7.53,0,0,0,7,4.66c4.07,0,7.51-2.38,7.51-8.22V20.07Zm-4,12.2a4.53,4.53,0,0,1-4.4-4.76,4.56,4.56,0,0,1,4.4-4.81c2.36,0,4.21,2,4.21,4.81S136.65,32.27,134.29,32.27Z" fill="#4285f4"/>
    <rect x="143.6" y="11.76" width="3.38" height="23.14" fill="#34a853"/>
    <path d="M156.27,32.27a4,4,0,0,1-3.83-2.39L163,25.51l-.36-.9a7.33,7.33,0,0,0-6.76-5c-4.07,0-7.45,3.2-7.45,7.89a7.74,7.74,0,0,0,7.84,7.9,7.87,7.87,0,0,0,6.58-3.5l-2.69-1.8A4.51,4.51,0,0,1,156.27,32.27ZM156,22.64a3.07,3.07,0,0,1,2.93,1.67l-7.06,2.93A4.34,4.34,0,0,1,156,22.64Z" fill="#ea4335"/>
    <path d="M90.73,22.08H79.44v3.35h8a7,7,0,0,1-1.81,4.15A8.23,8.23,0,0,1,79.44,32a8.91,8.91,0,0,1,0-17.82,8.53,8.53,0,0,1,6,2.39l2.36-2.37a11.68,11.68,0,0,0-8.4-3.37A12.43,12.43,0,0,0,67,23.12,12.44,12.44,0,0,0,79.44,35.38,11.21,11.21,0,0,0,88,31.94a11,11,0,0,0,2.9-7.84A11.26,11.26,0,0,0,90.73,22.08Z" fill="#4285f4"/>
</svg>