<?xml version="1.0" encoding="utf-8"?>
<svg version="1.1" xmlns="http://www.w3.org/2000/svg" xmlns:xlink="http://www.w3.org/1999/xlink" x="0px" y="0px" viewBox="0 0 230 55" xml:space="preserve">
  <ellipse cx="63.44" cy="26.14" rx="10.62" ry="10.64" fill="#2ca01c"/>
  <path d="M55.77,26.14a4.13,4.13,0,0,0,4.13,4.13h.59V28.74H59.9a2.6,2.6,0,0,1,0-5.2h1.41v8a1.54,1.54,0,0,0,1.54,1.54V22h-3A4.13,4.13,0,0,0,55.77,26.14ZM67,22h-.59v1.54H67a2.6,2.6,0,0,1,0,5.2H65.56v-8A1.54,1.54,0,0,0,64,19.16V30.27h3A4.14,4.14,0,0,0,67,22Z" fill="#fff"/>
  <path d="M84.38,27h-.06a3.85,3.85,0,0,0-2.88-1.42,4.56,4.56,0,0,0-4.55,4.79c0,2.82,1.82,4.87,4.42,4.87a4.08,4.08,0,0,0,2.94-1.36h0v5.6h2.52V25.85H84.38ZM81.93,33.1h0a2.54,2.54,0,0,1-2.44-2.71,2.49,2.49,0,0,1,2.44-2.67,2.59,2.59,0,0,1,2.43,2.71A2.54,2.54,0,0,1,81.93,33.1ZM95,30.87h0a2.09,2.09,0,0,1-2,2.23c-1,0-1.54-.72-1.54-2.2v-5H88.92v5.68c0,1.89.94,3.73,3.46,3.73a3.65,3.65,0,0,0,2.68-1.63h0V35h2.41V25.85H95ZM89.16,18.53H85.4v1h1.3v3.62h1.16V19.56h1.3Zm2.52,4.79a1.58,1.58,0,0,0,1.44-.88h0v.74h1.11V18.53H93.08v2.56h0A1.13,1.13,0,0,1,92,22.35c-.74,0-.87-.69-.87-1.24V18.53H90v2.91A1.69,1.69,0,0,0,91.68,23.32ZM79.34,18.53H78.18v4.65h1.16Zm20-.61h0a.7.7,0,1,0-.7-.7A.7.7,0,0,0,99.29,17.92Zm-2.7.61H95.43v4.65h1.16Zm-9.31-.61a.7.7,0,1,0-.7-.7A.7.7,0,0,0,87.28,17.92Zm-5.59,2.7a1.13,1.13,0,0,1,1.08-1.25c.75,0,.88.68.88,1.24v2.57h1.16v-2.9a1.7,1.7,0,0,0-1.72-1.88h0a1.58,1.58,0,0,0-1.44.88h0v-.75h-1.1v4.65h1.16Zm40.7,5.23h-3.25l-3.26,3.8h0V20.82h-2.52V35h2.52V30.49h0L119.26,35h3.32l-3.93-5Zm48,1.63a2.86,2.86,0,0,1,2,.91L173.9,27a4.47,4.47,0,0,0-3.46-1.37c-1.83,0-3.74.92-3.74,3,0,1.76,1.38,2.29,2.73,2.62s1.93.57,1.93,1.15c0,.84-1,1-1.29,1a3.25,3.25,0,0,1-2.3-1.09l-1.53,1.56A5.12,5.12,0,0,0,170,35.28c2.46,0,3.92-1.18,3.92-3.12s-1.79-2.48-3.06-2.79h0c-1.3-.31-1.75-.48-1.75-1C169.09,27.64,170,27.48,170.42,27.48Zm-4.34-1.63h-3.25l-3.26,3.8h0V20.82H157V35h2.52V30.49h0L163,35h3.31l-3.92-5Zm-15.67-.25h0a4.71,4.71,0,0,0-4.95,4.79,4.95,4.95,0,0,0,9.89,0A4.71,4.71,0,0,0,150.41,25.6Zm0,7.5h0a2.48,2.48,0,0,1-2.4-2.71,2.41,2.41,0,1,1,4.79,0A2.47,2.47,0,0,1,150.41,33.1ZM99.87,23.18V19.56h1.3v-1H97.41v1h1.3v3.62Zm76.7,10.54h0c0-.25-.21-.35-.44-.35h-.41v1.18h.21v-.49h.15l.28.49h.26L176.3,34A.31.31,0,0,0,176.57,33.72Zm-.47.17h-.17v-.34h.2c.11,0,.23,0,.23.16S176.22,33.89,176.1,33.89Zm0-1a1,1,0,0,0-1,1,1.05,1.05,0,0,0,2.1,0A1,1,0,0,0,176.13,32.92Zm0,1.93h0A.89.89,0,1,1,177,34,.88.88,0,0,1,176.13,34.85ZM99.57,35h2.52V25.85H99.57Zm9.08-1.9h0a2.45,2.45,0,0,1-2.3-2.7,2.31,2.31,0,0,1,4-1.86L112,26.92a4.88,4.88,0,1,0-3.37,8.34A4.67,4.67,0,0,0,112.05,34l-1.58-1.7A2.54,2.54,0,0,1,108.65,33.1Zm30.68-7.5a4.71,4.71,0,0,0-5,4.79,5,5,0,0,0,9.9,0A4.71,4.71,0,0,0,139.33,25.6Zm0,7.5h0a2.47,2.47,0,0,1-2.39-2.71,2.4,2.4,0,1,1,4.78,0A2.47,2.47,0,0,1,139.33,33.1Zm-10.62-7.5h0a4,4,0,0,0-2.81,1.25h-.05v-6h-2.51V35h2.41V33.7h0a3.4,3.4,0,0,0,2.87,1.55,4.59,4.59,0,0,0,4.57-4.86A4.53,4.53,0,0,0,128.71,25.6Zm-.5,7.5h0a2.54,2.54,0,0,1-2.43-2.67,2.59,2.59,0,0,1,2.43-2.71,2.49,2.49,0,0,1,2.44,2.67A2.54,2.54,0,0,1,128.21,33.1Z"/>
</svg>