<?xml version="1.0" encoding="utf-8"?>
<svg version="1.1" xmlns="http://www.w3.org/2000/svg" xmlns:xlink="http://www.w3.org/1999/xlink" x="0px" y="0px" viewBox="0 0 230 55" xml:space="preserve">
  <path d="M98.29,16.71h0a10.79,10.79,0,1,0,7.64,3.16A10.78,10.78,0,0,0,98.27,16.71Zm4.57,15.37a6.47,6.47,0,1,1,0-9.15h0A6.49,6.49,0,0,1,102.86,32.08ZM85.34,34,84.26,34H74.55L87.49,21l0-1.08a3.25,3.25,0,0,0-3.18-3.18l-1.08-.05H67l0,1.08A3.36,3.36,0,0,0,70.23,21l1.08.05H81L68.08,34l0,1.08a3.29,3.29,0,0,0,3.18,3.18h0l1.08.06H88.57l0-1.08A3.33,3.33,0,0,0,85.34,34Zm69-17.31a8.59,8.59,0,0,0-6.47,2.92,8.62,8.62,0,0,0-6.47-2.93,8.52,8.52,0,0,0-4.83,1.49,6,6,0,0,0-3.8-1.49V38.29l1.08-.06a3.25,3.25,0,0,0,3.18-3.18l.05-1.08V26.43l.06-1.08a4.76,4.76,0,0,1,.52-2.17,4.32,4.32,0,0,1,7.47,0,4.67,4.67,0,0,1,.53,2.17l.05,1.08V34l0,1.08A3.31,3.31,0,0,0,149,38.23l1.07.06V26.43l.06-1.08a4.74,4.74,0,0,1,.53-2.18,4.31,4.31,0,0,1,7.47,0,4.75,4.75,0,0,1,.52,2.16l.06,1.07V34l.05,1.08a3.29,3.29,0,0,0,3.19,3.18l1.07.06V25.35A8.63,8.63,0,0,0,154.37,16.72Zm-25.81,3.15a10.79,10.79,0,1,0,0,15.26h0a10.8,10.8,0,0,0,0-15.26Zm-3,12.21a6.47,6.47,0,1,1,0-9.15A6.46,6.46,0,0,1,125.51,32.08Z" fill="#2d8cff"/>
</svg>