<?xml version="1.0" encoding="utf-8"?>
<svg version="1.1" xmlns="http://www.w3.org/2000/svg" xmlns:xlink="http://www.w3.org/1999/xlink" x="0px" y="0px" viewBox="0 0 230 55" xml:space="preserve">
    <path d="M98.34,21.05H92.56v.62c2,0,2.24.52,1.63,2.33l-2.12,6.27-3-9.22h-.59l-3.1,9.22L83.28,24c-.64-1.9-.15-2.33,1.66-2.33v-.62H78.12v.62c1.78,0,2.27.46,3,2.7l3.41,10.51h.4l3.2-9.62,3.13,9.62h.4l3.5-10.51c.77-2.24,1.23-2.7,3.17-2.7Zm27.84,3.08h-5.5v.58c1.72,0,2,.37,2,2.55v3.93c0,2.19-.27,2.59-2,2.59-1.33-.19-2.22-.9-3.45-2.25L115.82,30c1.91-.34,2.92-1.54,2.92-2.89,0-1.69-1.44-3-4.15-3h-5.41v.58c1.72,0,2,.37,2,2.55v3.93c0,2.19-.28,2.59-2,2.59v.58h6.12v-.58c-1.72,0-2-.4-2-2.59v-1.1h.52l3.41,4.27h9c4.39,0,6.29-2.34,6.29-5.13S130.57,24.13,126.18,24.13Zm-12.88,5V25.05h1.26a1.89,1.89,0,0,1,2,2.06,1.88,1.88,0,0,1-2,2Zm13,4.27h-.22c-1.1,0-1.26-.28-1.26-1.69V25.05h1.48c3.19,0,3.78,2.33,3.78,4.15S129.46,33.41,126.27,33.41Zm-23.75-9.68c-3.38,0-6.15,2.49-6.15,5.5s2.77,5.53,6.15,5.53,6.14-2.49,6.14-5.53S105.9,23.73,102.52,23.73Zm0,10.05c-2.83,0-3.81-2.52-3.81-4.55s1-4.55,3.81-4.55,3.84,2.55,3.84,4.55S105.37,33.78,102.52,33.78Z" fill="#00749a"/>
    <path d="M139.39,21.05H133v.62c2.06,0,2.42.49,2.42,3.56v4.92c0,3.07-.36,3.59-2.42,3.59v.62h7v-.62c-2.06,0-2.42-.52-2.42-3.59V28.64h1.75c3.16,0,4.91-1.66,4.91-3.78S142.55,21.05,139.39,21.05Zm0,6.46h-1.75V22.16h1.75a2.43,2.43,0,0,1,2.52,2.7A2.41,2.41,0,0,1,139.39,27.51Zm34,1.2-1.69-.83c-1.48-.68-2.12-1.11-2.12-1.91s.8-1.26,1.66-1.26c1.63,0,2.43,1.2,2.64,2.64h.65V23.73h-.59a1.69,1.69,0,0,1-.4.83,3.83,3.83,0,0,0-2.39-.8,3,3,0,0,0-3.29,2.73,3.33,3.33,0,0,0,2.15,3l1.75.83c1.26.59,2,1.2,2,2s-.8,1.47-1.78,1.47a3.41,3.41,0,0,1-3.48-3.22h-.61v4.24h.58a2.28,2.28,0,0,1,.49-1,4.55,4.55,0,0,0,2.77,1,3.47,3.47,0,0,0,3.75-3.29A3.2,3.2,0,0,0,173.34,28.71Zm9.46,0-1.69-.83C179.64,27.2,179,26.77,179,26s.8-1.26,1.66-1.26c1.63,0,2.43,1.2,2.64,2.64h.65V23.73h-.58a1.88,1.88,0,0,1-.4.83,3.88,3.88,0,0,0-2.4-.8,3,3,0,0,0-3.29,2.73,3.33,3.33,0,0,0,2.15,3l1.75.83c1.26.59,2,1.2,2,2s-.8,1.47-1.78,1.47a3.4,3.4,0,0,1-3.47-3.22h-.62v4.24h.59a2.19,2.19,0,0,1,.49-1,4.52,4.52,0,0,0,2.76,1,3.47,3.47,0,0,0,3.75-3.29A3.19,3.19,0,0,0,182.8,28.71Zm-17.39,2.76-.15.55c-.28,1-.62,1.39-2.8,1.39H162c-1.6,0-1.87-.37-1.87-2.55V29.44c2.39,0,2.58.22,2.58,1.82h.58V26.68h-.58c0,1.6-.19,1.81-2.58,1.81V25.05h1.69c2.18,0,2.52.37,2.79,1.38l.16.59h.49l-.22-2.89h-9v.58c1.72,0,2,.37,2,2.55v3.93c0,2-.24,2.5-1.59,2.57-1.29-.19-2.18-.9-3.39-2.23L151.65,30c1.9-.34,2.92-1.54,2.92-2.89,0-1.69-1.45-3-4.15-3H145v.58c1.72,0,2,.37,2,2.55v3.93c0,2.19-.28,2.59-2,2.59v.58h6.11v-.58c-1.72,0-2-.4-2-2.59v-1.1h.52l3.41,4.27h12.63l.18-2.89Zm-16.28-2.33V25.05h1.26a1.88,1.88,0,0,1,2,2.06,1.88,1.88,0,0,1-2,2Z" fill="#464342"/>
    <path d="M61.23,28.69,57.15,40.54A13.56,13.56,0,0,0,61,41.1a13.84,13.84,0,0,0,4.52-.77,1.14,1.14,0,0,1-.1-.19ZM47.39,27.5a13.61,13.61,0,0,0,7.67,12.24L48.57,22A13.44,13.44,0,0,0,47.39,27.5ZM61,11.65A15.85,15.85,0,1,0,76.84,27.5,15.87,15.87,0,0,0,61,11.65Zm0,31A15.12,15.12,0,1,1,76.11,27.5,15.13,15.13,0,0,1,61,42.62Zm9.18-15.81a7.15,7.15,0,0,0-1.12-3.75,6.37,6.37,0,0,1-1.34-3.19A2.35,2.35,0,0,1,70,17.46h.17A13.59,13.59,0,0,0,49.63,20l.87,0c1.43,0,3.63-.18,3.63-.18A.56.56,0,0,1,54.21,21s-.73.09-1.55.13l5,14.73,3-8.92-2.12-5.81C57.74,21.08,57,21,57,21a.56.56,0,0,1,.09-1.12s2.24.18,3.58.18,3.62-.18,3.62-.18A.56.56,0,0,1,64.42,21s-.74.09-1.56.13l4.92,14.62,1.35-4.53A16.35,16.35,0,0,0,70.17,26.81ZM72.92,21A10,10,0,0,1,73,22.37a12.74,12.74,0,0,1-1,4.87l-4.15,12A13.58,13.58,0,0,0,72.92,21Z" fill="#464342"/>
</svg>