<?xml version="1.0" encoding="utf-8"?>
<svg version="1.1" xmlns="http://www.w3.org/2000/svg" xmlns:xlink="http://www.w3.org/1999/xlink" x="0px" y="0px" viewBox="0 0 230 55" xml:space="preserve">
    <path d="M165.94,27.45l4.33-6.85h-4.41l-4.15,6.61V13.33l-4.18.36V34.4h4.18V27.65L166,34.4h4.43ZM80,22.72a4.07,4.07,0,0,0-3.82-2.4H76c-3.88,0-5.65,2.91-5.65,7.05,0,5.21,2.3,7.3,5.68,7.3a4.08,4.08,0,0,0,4-2.34V34.4h4V20.6H80Zm-2.81,8.73c-2.76,0-2.69-3-2.69-4,0-3.35,1.48-3.87,2.69-3.87,1.63,0,2.61,1.13,2.61,3.06v2A2.64,2.64,0,0,1,77.18,31.45ZM62.41,18.18V20.6H59.56V24h2.85V34.4h4.18V24h3.15L70,20.6H66.59V18.29c0-1.24.58-1.69,2.06-1.69H70.1V13.45a22.47,22.47,0,0,0-2.26-.18C63.67,13.27,62.41,15.32,62.41,18.18ZM93,23.58a6.38,6.38,0,0,1,2.76.65l1-3a7,7,0,0,0-4.07-.92c-7.15,0-7.07,5.49-7.07,7.17h0c0,2.25.28,7.18,7.09,7.18,2.93,0,4-.92,4-.92l-1-2.93A6.81,6.81,0,0,1,93,31.5a3.05,3.05,0,0,1-3.28-3.27V26.77A3,3,0,0,1,93,23.58Zm56.13-3.26c-4.51,0-6.88,2.54-6.88,7.1,0,6.25,4.09,7.26,6.89,7.26,4.1,0,6.83-2.21,6.83-7.2C156,22.28,152.89,20.32,149.12,20.32Zm2.72,7.91c0,2-1.1,3.23-2.78,3.23s-2.67-1.11-2.67-3.23V26.77c0-2.26,1.31-3.17,2.68-3.17,2,0,2.77,1.48,2.77,3.17ZM120,20.33c-1.31,0-3.29.59-3.89,2.2v-9.2l-4.17.36V34.4h3.93V32.34A4.31,4.31,0,0,0,120,34.68c3.38,0,5.67-2.09,5.67-7.3C125.68,23.24,123.88,20.33,120,20.33Zm-1.17,11.12a2.65,2.65,0,0,1-2.73-2.83v-2c0-1.93,1.1-3.06,2.72-3.06,1.22,0,2.7.52,2.7,3.87C121.54,28.46,121.61,31.45,118.84,31.45Zm-14.9-11.11h0c-4.39,0-6.71,2.4-6.71,6.65v.79c0,5.53,3.25,6.95,7.14,6.95s5.48-1,5.48-1l-.78-2.82a12.09,12.09,0,0,1-4.2.86c-2.28,0-3.26-.58-3.51-2.77h8.82V26.7C110.18,22.08,107.58,20.34,103.94,20.34Zm-2.57,5.91c.09-2.28,1.15-3.09,2.68-3.09h0c1.52,0,2.5.93,2.45,3.09ZM134,20.32c-4.51,0-6.89,2.54-6.89,7.1,0,6.25,4.1,7.26,6.9,7.26,4.1,0,6.83-2.21,6.83-7.2C140.83,22.28,137.76,20.32,134,20.32Zm2.71,7.91c0,2-1.1,3.23-2.77,3.23s-2.67-1.11-2.67-3.23V26.77c0-2.26,1.31-3.17,2.67-3.17,2,0,2.77,1.48,2.77,3.17Z" fill="#1877f2"/>
</svg>