<?xml version="1.0" encoding="utf-8"?>
<svg version="1.1" xmlns="http://www.w3.org/2000/svg" xmlns:xlink="http://www.w3.org/1999/xlink" x="0px" y="0px" viewBox="0 0 230 55" xml:space="preserve">
    <path d="M106,17.21c-.92-1.07-2.54-1.64-4.7-1.64H94.86a.89.89,0,0,0-.89.75L91.36,32.85a.54.54,0,0,0,.53.62H95a.9.9,0,0,0,.89-.75l.7-4.46a.89.89,0,0,1,.89-.76h2q6.38,0,7.34-6.13A5,5,0,0,0,106,17.21Zm-4,4.39c-.36,2.32-2.12,2.32-3.83,2.32h-1l.69-4.32a.53.53,0,0,1,.53-.45h.44c1.17,0,2.27,0,2.83.66A2.16,2.16,0,0,1,102.05,21.6Zm18.52-.07h-3.09A.54.54,0,0,0,117,22l-.13.87-.22-.32c-.67-1-2.16-1.29-3.65-1.29a7.1,7.1,0,0,0-6.89,6.21,5.85,5.85,0,0,0,1.15,4.74,4.83,4.83,0,0,0,3.89,1.57A5.89,5.89,0,0,0,115.37,32l-.13.86a.53.53,0,0,0,.53.62h2.78a.89.89,0,0,0,.88-.75l1.67-10.57A.54.54,0,0,0,120.57,21.53Zm-4.3,6a3.45,3.45,0,0,1-3.49,2.95,2.39,2.39,0,0,1-2.55-3,3.45,3.45,0,0,1,3.46-3,2.59,2.59,0,0,1,2,.84A2.65,2.65,0,0,1,116.27,27.54Zm20.74-6h-3.1a.89.89,0,0,0-.74.39l-4.29,6.31-1.81-6.06a.89.89,0,0,0-.86-.64h-3a.54.54,0,0,0-.51.71l3.42,10-3.21,4.53a.54.54,0,0,0,.44.85h3.1a.89.89,0,0,0,.73-.38l10.32-14.9A.54.54,0,0,0,137,21.53Z" fill="#002f86"/>
    <path d="M166.54,21.53h-3.08a.53.53,0,0,0-.53.45l-.14.87-.21-.32c-.67-1-2.16-1.29-3.65-1.29A7.1,7.1,0,0,0,152,27.45a5.78,5.78,0,0,0,1.15,4.74,4.82,4.82,0,0,0,3.89,1.57A5.89,5.89,0,0,0,161.35,32l-.14.86a.54.54,0,0,0,.53.62h2.78a.9.9,0,0,0,.89-.75l1.67-10.57A.55.55,0,0,0,166.54,21.53Zm-4.3,6a3.45,3.45,0,0,1-3.48,2.95,2.58,2.58,0,0,1-2.07-.84,2.62,2.62,0,0,1-.49-2.16,3.45,3.45,0,0,1,3.46-3,2.6,2.6,0,0,1,2.06.84A2.64,2.64,0,0,1,162.24,27.54Zm11.45-12h-3a.54.54,0,0,0-.53.45l-2.64,16.83a.54.54,0,0,0,.53.62h2.66a.89.89,0,0,0,.88-.75l2.61-16.53A.54.54,0,0,0,173.69,15.57ZM152,17.21c-.92-1.07-2.55-1.64-4.7-1.64h-6.45a.89.89,0,0,0-.88.75l-2.61,16.53a.54.54,0,0,0,.53.62h3.31a.62.62,0,0,0,.62-.52l.74-4.69a.89.89,0,0,1,.88-.76h2q6.38,0,7.34-6.13A5,5,0,0,0,152,17.21Zm-4,4.39c-.35,2.32-2.12,2.32-3.83,2.32h-1l.68-4.32a.54.54,0,0,1,.53-.45h.45c1.16,0,2.26,0,2.83.66A2.12,2.12,0,0,1,148,21.6Z" fill="#009cde"/>
    <path d="M77.45,9.87c-1.39-1.58-3.91-2.26-7.12-2.26H61a1.33,1.33,0,0,0-1.32,1.12L55.78,33.39a.8.8,0,0,0,.79.93h5.77l1.45-9.19,0,.29a1.33,1.33,0,0,1,1.32-1.13H67.8c5.38,0,9.59-2.18,10.82-8.5,0-.19.07-.37.1-.55C79.08,12.9,78.71,11.31,77.45,9.87Z" fill="#003087"/>
    <path d="M80.05,16.27a4.56,4.56,0,0,0-1.33-1h0c0,.18-.06.36-.1.55-1.23,6.32-5.44,8.5-10.82,8.5H65.06a1.33,1.33,0,0,0-1.32,1.13l-1.4,8.9-.4,2.52a.7.7,0,0,0,.69.81h4.86a1.17,1.17,0,0,0,1.16-1l0-.24.92-5.81.06-.32a1.16,1.16,0,0,1,1.15-1h.73c4.71,0,8.39-1.92,9.47-7.45C81.47,19.55,81.24,17.62,80.05,16.27Z" fill="#009cde"/>
    <path d="M77.71,14.81l-.28-.08a5.47,5.47,0,0,0-.58-.15,6.18,6.18,0,0,0-.62-.12,15.14,15.14,0,0,0-2.41-.18H66.5a1.1,1.1,0,0,0-.51.12,1.15,1.15,0,0,0-.65.87l-1.55,9.86,0,.29a1.33,1.33,0,0,1,1.32-1.13H67.8c5.38,0,9.59-2.18,10.82-8.5,0-.19.07-.37.1-.55A6.13,6.13,0,0,0,77.71,14.81Z" fill="#012069"/>
</svg>