<?xml version="1.0" encoding="utf-8"?>
<svg version="1.1" xmlns="http://www.w3.org/2000/svg" xmlns:xlink="http://www.w3.org/1999/xlink" x="0px" y="0px" viewBox="0 0 230 55" xml:space="preserve">
  <path d="M128.65,10.66h-2.92l2.06-2.07a4.73,4.73,0,0,0-1.18-1.18l-2.06,2.07V6.55a6,6,0,0,0-.84-.07h0a5.57,5.57,0,0,0-.83.07V9.48l-2.07-2.07a4.69,4.69,0,0,0-.64.54h0a4.69,4.69,0,0,0-.54.64l2.07,2.07h-2.93s-.07.55-.07.83h0a5.71,5.71,0,0,0,.07.84h2.93l-2.07,2.06a4.73,4.73,0,0,0,1.18,1.18l2.07-2.06v2.92a4.5,4.5,0,0,0,.83.07h0a4.76,4.76,0,0,0,.84-.07V13.51l2.06,2.06a4.16,4.16,0,0,0,.64-.54h0a4.16,4.16,0,0,0,.54-.64l-2.06-2.06h2.92a4.57,4.57,0,0,0,.07-.83h0a4.57,4.57,0,0,0-.07-.83Zm-3.88,1.89a3,3,0,0,1-1.06.19h0a3,3,0,0,1-1.06-.19,2.93,2.93,0,0,1-.19-1.06h0a3.11,3.11,0,0,1,.19-1.06,3,3,0,0,1,1.06-.19h0a3.07,3.07,0,0,1,1.06.19,3,3,0,0,1,.19,1.06h0A2.93,2.93,0,0,1,124.77,12.55Zm29.55,7.75a4.85,4.85,0,0,0-.09-.57l-.44-.05h-.5a4.48,4.48,0,0,0-2.67.75A6.4,6.4,0,0,0,149,22.2a10.59,10.59,0,0,0-.09-1.25c-.06-.49-.12-.89-.18-1.19a4.94,4.94,0,0,0-.61-.09q-.33,0-.66,0t-.63,0c-.22,0-.43,0-.64.09h0V35.24c.26,0,.51.07.77.09s.49,0,.74,0l.74,0c.25,0,.49,0,.74-.09v-7.7a7.67,7.67,0,0,1,.35-2.56,4,4,0,0,1,.93-1.57,3.28,3.28,0,0,1,1.33-.8,5.28,5.28,0,0,1,1.55-.23h.41a1.68,1.68,0,0,1,.5.07c0-.26.08-.51.1-.76a6.59,6.59,0,0,0,0-.75C154.35,20.72,154.34,20.5,154.32,20.3Zm-58.39-.9a16.64,16.64,0,0,0-2.39.18,14.19,14.19,0,0,0-2.26.51,4.75,4.75,0,0,0,.57,2.39,13.9,13.9,0,0,1,1.8-.44,11.15,11.15,0,0,1,2-.17,4.19,4.19,0,0,1,2.62.7A2.91,2.91,0,0,1,99.16,25h0v.57c-.28,0-.63-.07-1-.1s-.94-.05-1.59-.05a9.5,9.5,0,0,0-2.47.32,6.13,6.13,0,0,0-2.08,1,4.61,4.61,0,0,0-2,3.9,5.08,5.08,0,0,0,.46,2.27,4.16,4.16,0,0,0,1.28,1.54,5.47,5.47,0,0,0,2,.87,12.19,12.19,0,0,0,2.67.27,18.73,18.73,0,0,0,3.08-.25c1-.18,1.86-.34,2.56-.5V25.16a5.57,5.57,0,0,0-1.56-4.39A6.82,6.82,0,0,0,95.93,19.4Zm3.23,13.49a8.69,8.69,0,0,1-1.31.22c-.5,0-1,.08-1.44.08s-.74,0-1.14-.06a2.93,2.93,0,0,1-1.11-.33,2.4,2.4,0,0,1-.83-.79A2.59,2.59,0,0,1,93,30.59a2.42,2.42,0,0,1,1-2.11,5,5,0,0,1,2.85-.69c.33,0,.72,0,1.18.06l1.15.12h0ZM75.65,34.82ZM88.23,19.76H76.62a7.17,7.17,0,0,0-.09,1.18,7.33,7.33,0,0,0,.09,1.2H83.8L75.65,34.82l.15.42H87.87A7,7,0,0,0,88,34.09a8.28,8.28,0,0,0-.09-1.23H80.18l8.21-12.71Zm53,1.67a5.72,5.72,0,0,0-2-1.49,6.84,6.84,0,0,0-2.81-.54,7.41,7.41,0,0,0-3.24.65,6.33,6.33,0,0,0-2.28,1.75,7.25,7.25,0,0,0-1.34,2.59,11.49,11.49,0,0,0-.44,3.22,10.92,10.92,0,0,0,.45,3.21A6.53,6.53,0,0,0,131,33.35,6.38,6.38,0,0,0,133.44,35a9.77,9.77,0,0,0,3.62.59,15.36,15.36,0,0,0,2.64-.21,10.35,10.35,0,0,0,2.19-.63,7.91,7.91,0,0,0-.19-1.28,4.63,4.63,0,0,0-.39-1.11,10.94,10.94,0,0,1-4.07.76,5.2,5.2,0,0,1-3.7-1.18,5.06,5.06,0,0,1-1.31-3.71h10.53l.06-.8c0-.31,0-.61,0-.89a9.26,9.26,0,0,0-.42-2.85A6.56,6.56,0,0,0,141.19,21.43ZM132.26,26a5.47,5.47,0,0,1,1.19-3.11,4,4,0,0,1,4.44-.77,3.22,3.22,0,0,1,1.11.92,3.92,3.92,0,0,1,.67,1.34,5.76,5.76,0,0,1,.22,1.62Zm-11.44-5.69a6.42,6.42,0,0,0,0,1.24,3.71,3.71,0,0,0,.09.55h2V35.24c.24,0,.49.07.73.09l.71,0c.25,0,.5,0,.74,0s.5,0,.74-.09V19.76h-4.89A3.86,3.86,0,0,0,120.82,20.32Zm-3.42.93a5.12,5.12,0,0,0-2-1.4,7,7,0,0,0-2.52-.45,6.06,6.06,0,0,0-1.65.21,5.26,5.26,0,0,0-1.32.57,5,5,0,0,0-1,.82,6.12,6.12,0,0,0-.72.93c0-.06,0-.2-.05-.42s-.06-.45-.09-.69-.06-.47-.09-.68a2.12,2.12,0,0,0-.07-.38,5.8,5.8,0,0,0-.64-.09l-.63,0c-.22,0-.43,0-.65,0s-.41,0-.62.09h0v22.6a6.23,6.23,0,0,0,.74.09c.25,0,.49,0,.74,0l.74,0c.26,0,.52-.05.77-.09V35.27a7.83,7.83,0,0,0,1.21.24,10.47,10.47,0,0,0,1.36.09A8.08,8.08,0,0,0,117,33.35a8.64,8.64,0,0,0,2.15-6.23,11.44,11.44,0,0,0-.46-3.45A7,7,0,0,0,117.4,21.25Zm-1.75,8.6a5.21,5.21,0,0,1-1,1.83,4,4,0,0,1-1.55,1.07,5.58,5.58,0,0,1-2,.35,11,11,0,0,1-1.57-.09,6,6,0,0,1-1.18-.3V26.43a5.37,5.37,0,0,1,.33-2,4,4,0,0,1,.88-1.37,3.68,3.68,0,0,1,1.24-.82,3.92,3.92,0,0,1,1.44-.27,3.21,3.21,0,0,1,2.92,1.42,7.19,7.19,0,0,1,.89,3.83A8.08,8.08,0,0,1,115.65,29.85Z" fill="#ff4a00"/>
</svg>