<?xml version="1.0" encoding="iso-8859-1"?>
<!-- Generator: Adobe Illustrator 19.0.0, SVG Export Plug-In . SVG Version: 6.00 Build 0)  -->
<svg version="1.1" id="Layer_1" xmlns="http://www.w3.org/2000/svg" xmlns:xlink="http://www.w3.org/1999/xlink" x="0px" y="0px"
	 viewBox="0 0 511.984 511.984" style="enable-background:new 0 0 511.984 511.984;" xml:space="preserve">
<path style="fill:#434A54;" d="M141.325,117.34c-5.891,0-10.664-4.781-10.664-10.672V74.669c0-5.89,4.773-10.671,10.664-10.671
	s10.664,4.781,10.664,10.671v31.999C151.989,112.558,147.216,117.34,141.325,117.34z"/>
<g>
	<path style="fill:#4FC2E9;" d="M204.261,179.619l-42.67-88.263c-1.5-3.109-4.414-5.297-7.82-5.875
		c-3.406-0.562-6.882,0.547-9.32,2.984l-21.335,21.327c-2.734,2.734-3.773,6.734-2.719,10.453l54.272,191.994
		c1.312,4.625,5.531,7.766,10.258,7.766c0.352,0,0.703-0.031,1.062-0.062c5.141-0.516,9.18-4.625,9.578-9.781l9.726-125.074
		C205.432,183.197,205.081,181.322,204.261,179.619z"/>
	<path style="fill:#4FC2E9;" d="M346.741,361.347c-1.719,0-3.438-0.406-4.984-1.233l-56.561-29.937
		c-2.5-1.312-4.375-3.578-5.219-6.281c-0.828-2.703-0.547-5.625,0.766-8.125l39.921-75.42c2.75-5.218,9.203-7.202,14.406-4.452
		l56.576,29.937c5.203,2.75,7.188,9.218,4.438,14.421l-39.906,75.42c-1.328,2.5-3.593,4.375-6.296,5.202
		C348.866,361.191,347.804,361.347,346.741,361.347z"/>
</g>
<path style="fill:#3BAFDA;" d="M354.568,457.33c-0.203-1.688-21.248-168.714-21.248-211.994c0-13.983-8.359-26.515-24.844-37.233
	c-11.469-7.468-27.187-14.249-46.725-20.187c-32.476-9.859-59.749-14.062-61.092-14.234c-2.898-0.375-5.828,0.453-8.094,2.297
	c-2.273,1.844-3.688,4.531-3.914,7.453L162.692,457.83c-0.234,2.969,0.781,5.891,2.805,8.078c2.016,2.172,4.851,3.422,7.828,3.422
	h170.667c3.062,0,5.969-1.312,8-3.609C354.021,463.424,354.959,460.361,354.568,457.33z"/>
<path style="fill:#656D78;" d="M151.989,85.341h-21.327c-5.898,0-10.672-4.781-10.672-10.672c0-5.89,4.773-10.671,10.672-10.671
	h21.327c5.891,0,10.672,4.781,10.672,10.671C162.66,80.559,157.879,85.341,151.989,85.341z"/>
<path style="fill:#FFCE54;" d="M149.263,3.546C147.24,1.297,144.357,0,141.325,0s-5.914,1.297-7.937,3.546
	c-5.633,6.281-18.726,22.125-18.726,33.796c0,14.703,11.96,26.656,26.663,26.656c14.703,0,26.664-11.953,26.664-26.656
	C167.989,25.671,154.895,9.827,149.263,3.546z"/>
<g>
	<path style="fill:#3BAFDA;" d="M322.664,149.339H194.659c-5.898,0-10.671-4.781-10.671-10.672c0-5.89,4.773-10.671,10.671-10.671
		h128.004c5.891,0,10.656,4.781,10.656,10.671C333.32,144.557,328.554,149.339,322.664,149.339z"/>
	<path style="fill:#3BAFDA;" d="M244.08,163.901c-2.727,0-5.453-1.031-7.539-3.125c-4.164-4.156-4.164-10.906,0-15.078
		l59.826-59.826c4.172-4.156,10.922-4.156,15.078,0c4.172,4.172,4.172,10.922,0,15.094l-59.818,59.811
		C249.541,162.87,246.814,163.901,244.08,163.901z"/>
	<path style="fill:#3BAFDA;" d="M258.658,213.337c-5.891,0-10.672-4.781-10.672-10.671V74.669c0-5.89,4.773-10.655,10.672-10.655
		c5.891,0,10.664,4.766,10.664,10.655v127.997C269.322,208.555,264.549,213.337,258.658,213.337z"/>
	<path style="fill:#3BAFDA;" d="M275.165,165.839c-2.734,0-5.469-1.047-7.546-3.125l-61.765-61.748
		c-4.164-4.172-4.164-10.922,0-15.094c4.172-4.156,10.922-4.156,15.085,0l61.756,61.764c4.171,4.156,4.171,10.922,0,15.078
		C280.618,164.792,277.884,165.839,275.165,165.839z"/>
</g>
<g>
	<path style="fill:#4FC2E9;" d="M311.992,153.167c0,34.452-33.03,66.139-53.334,66.139c-20.305,0-53.335-31.687-53.335-66.139
		c0-34.437,23.875-57.17,53.335-57.17C288.117,95.997,311.992,118.73,311.992,153.167z"/>
	<path style="fill:#4FC2E9;" d="M163.246,451.939c12.71-2.25,42.561-8.094,76.482-18.688
		c46.187-14.421,81.607-31.795,105.778-51.826c-0.984-8.547-1.969-17.406-2.953-26.343
		c-43.218,45.796-142.996,68.217-177.213,74.747L163.246,451.939z"/>
	<path style="fill:#4FC2E9;" d="M334.242,267.023c-25.344,40.545-70.006,66.357-103.404,80.966
		c-24.796,10.859-47.17,17.28-59.694,20.437l-2.117,22.453c10.391-2.328,37.952-9.203,69.896-23.141
		c23.516-10.249,44.538-22.218,62.443-35.561c13.641-10.156,25.5-21.156,35.5-32.844
		C335.773,287.444,334.867,276.444,334.242,267.023z"/>
	<path style="fill:#4FC2E9;" d="M324.383,221.868c-3.984-4.859-9.281-9.469-15.906-13.766c-0.094-0.062-0.188-0.125-0.281-0.188
		c-17.859,18.453-70.318,69.248-130.965,96.247l-2.281,24.094c34.226-13.453,70.1-35.827,106.778-66.623
		C301.601,244.945,316.523,230.071,324.383,221.868z"/>
</g>
<path style="fill:#424953;" d="M365.318,447.986h-213.33c-5.89,0-10.664,4.781-10.664,10.672v42.67
	c0,5.891,4.773,10.656,10.664,10.656h213.33c5.891,0,10.672-4.766,10.672-10.656v-42.67
	C375.99,452.767,371.209,447.986,365.318,447.986z"/>
<g>
</g>
<g>
</g>
<g>
</g>
<g>
</g>
<g>
</g>
<g>
</g>
<g>
</g>
<g>
</g>
<g>
</g>
<g>
</g>
<g>
</g>
<g>
</g>
<g>
</g>
<g>
</g>
<g>
</g>
</svg>
