<?xml version="1.0" encoding="utf-8"?>
<svg version="1.1" width="690" height="165" viewBox="0 0 690 165" fill="none" xmlns="http://www.w3.org/2000/svg">
<path d="M212.045 44C214.717 48.4128 215.922 52.9581 215.922 58.6996C215.922 77.0122 200.289 100.802 187.602 117.506H158.622L147 48.0095L172.375 45.6004L178.519 95.0517C184.261 85.6979 191.346 70.9983 191.346 60.9763C191.346 55.4906 190.407 51.7542 188.938 48.6776L212.045 44Z" fill="#3D95CE"/>
<path d="M244.932 74.6024C249.602 74.6024 261.357 72.4663 261.357 65.785C261.357 62.5767 259.088 60.9763 256.415 60.9763C251.738 60.9763 245.601 66.5848 244.932 74.6024ZM244.397 87.8347C244.397 95.9929 248.933 99.1936 254.947 99.1936C261.496 99.1936 267.767 97.5932 275.917 93.4514L272.847 114.297C267.105 117.102 258.156 118.974 249.469 118.974C227.435 118.974 219.549 105.612 219.549 88.9062C219.549 67.2543 232.377 44.2641 258.823 44.2641C273.383 44.2641 281.525 52.4216 281.525 63.7806C281.526 82.0925 258.024 87.7023 244.397 87.8347Z" fill="#3D95CE"/>
<path d="M354.753 60.3082C354.753 62.9807 354.347 66.8571 353.944 69.3904L346.33 117.505H321.622L328.567 73.3992C328.699 72.2029 329.104 69.7944 329.104 68.4582C329.104 65.2499 327.099 64.4494 324.689 64.4494C321.489 64.4494 318.28 65.918 316.144 66.9902L308.266 117.506H283.419L294.77 45.4693H316.275L316.548 51.2191C321.621 47.8785 328.302 44.2655 337.78 44.2655C350.338 44.2641 354.753 50.6813 354.753 60.3082Z" fill="#3D95CE"/>
<path d="M428.103 52.15C435.18 47.0766 441.862 44.2641 451.075 44.2641C463.762 44.2641 468.175 50.6813 468.175 60.3082C468.175 62.9807 467.771 66.8571 467.367 69.3904L459.762 117.506H435.047L442.125 72.467C442.255 71.2631 442.529 69.7944 442.529 68.8629C442.529 65.2506 440.524 64.4494 438.115 64.4494C435.046 64.4494 431.978 65.7857 429.701 66.9902L421.825 117.506H397.116L404.194 72.4676C404.324 71.2638 404.59 69.7951 404.59 68.8636C404.59 65.2513 402.584 64.4501 400.183 64.4501C396.975 64.4501 393.774 65.9187 391.637 66.9909L383.753 117.507H358.915L370.265 45.47H391.507L392.174 51.4839C397.116 47.8798 403.791 44.2669 412.74 44.2669C420.488 44.2641 425.56 47.6055 428.103 52.15Z" fill="#3D95CE"/>
<path d="M517.347 73.1351C517.347 67.2543 515.877 63.2448 511.473 63.2448C501.722 63.2448 499.719 80.4839 499.719 89.3026C499.719 95.9929 501.591 100.133 505.994 100.133C515.211 100.133 517.347 81.9532 517.347 73.1351ZM474.61 88.238C474.61 65.5209 486.628 44.2641 514.279 44.2641C535.115 44.2641 542.731 56.5628 542.731 73.5384C542.731 95.9922 530.842 119.245 502.524 119.245C481.554 119.245 474.61 105.478 474.61 88.238Z" fill="#3D95CE"/>
</svg>
